<svg width="100%" height="100%" xmlns="http://www.w3.org/2000/svg" id="logo_OUTLINE" viewBox="0 0 1080.69 1345.71"
><defs
><style>
    .cls-1 {
    fill: white;
    }
    .cls-2 {
    fill: none;
    stroke: white;
    stroke-linecap: round;
    stroke-linejoin: round;
    stroke-width: 0.71px;
    }
</style></defs
><path
        class="cls-1"
        d="M1080.34,546.6h-108a433.78,433.78,0,0,0-99-275.29,1.9,1.9,0,0,1-.44-.54c-8.42-10.15-17.27-19.87-26.67-29.27a400.56,400.56,0,0,0,58-94A540.22,540.22,0,0,1,1080.34,546.6Z"
/><path class="cls-1" d="M1080.34,1194.59,1048.59,1218v114.16l-27.54-40.39v-97.2Z" /><polygon
        class="cls-1"
        points="942.43 1194.59 1045.35 1345.35 1021.05 1345.35 954.63 1248.05 934.65 1218.67 934.65 1194.59 942.43 1194.59"
/><path
        class="cls-1"
        d="M431.59,971.14a171.78,171.78,0,0,1,14-58.64c-.32-.11-.54-.11-.86-.22,59.83-129.38-135.11-162-133.81-284A129.41,129.41,0,0,0,438.07,704,221.41,221.41,0,0,0,504.17,771c47.3,31,104.22,44.6,161.78,55.29v-.1a323.24,323.24,0,0,0,150.77,44.27c8.31.33,16.63.44,24.94.11,46.87-2.91,128.63-1.51,128.31-65.77a216.19,216.19,0,0,1,87.69,173.77c-63.07,45.36-168.59,17.82-236.73,30.35-97.09,55.19-194.08,98.38-353.26,72.68-21-26.67-33.05-57.13-35.75-88.56A186.1,186.1,0,0,1,431.59,971.14ZM673.94,882.9c-43.63,62.64,69.23,22.68,95.69,14.37A325.94,325.94,0,0,1,673.94,882.9Z"
/><path
        class="cls-1"
        d="M1038.54,1067.37c-3,6.58-6.26,13-9.82,19.22H773.19C845.34,1002.89,955.82,998.25,1038.54,1067.37Z"
/><polygon
        class="cls-1"
        points="934.65 1218.67 954.63 1248.05 954.63 1345.35 934.65 1345.35 934.65 1218.67"
/><path
        class="cls-1"
        d="M934,430.28c42.55,145.15,3.24,309.42-116.2,418.6a286.85,286.85,0,0,1-44.07-5.07C951,706.65,967.48,438.92,808.94,280.6c8-7.24,15.66-14.91,23-22.9A406.85,406.85,0,0,1,934,430.28Z"
/><path
        class="cls-1"
        d="M894.47,1270H874.39c.54-35.85-27.33-53.89-55.3-53.89v-1.51H860v-8A75.54,75.54,0,0,1,894.47,1270Z"
/><path
        class="cls-1"
        d="M887.13,132.64c-1.84,4.43-3.78,8.75-5.72,13.07A378.15,378.15,0,0,1,538.62,364.4c-346-4.86-447,489.56-128.09,621.53.11,2.92.33,5.84.65,8.64A185.36,185.36,0,0,0,438,1076.76C177,1026.33-8.5,793.59.68,527.91,257.61,431.69,151.12,153.27,540.35,136.2H782.16V63.74A536.64,536.64,0,0,1,887.13,132.64Z"
/><path
        class="cls-1"
        d="M874.39,1270c.54,35.86-27.33,53.89-55.3,53.89s-55.83-18-55.4-53.89c-.43-35.85,27.43-53.89,55.4-53.89S874.93,1234.12,874.39,1270Zm-100.66,0c-.86,58.75,91.59,58.75,90.72,0C865.32,1211.11,772.87,1211.11,773.73,1270Z"
/><path
        class="cls-1"
        d="M763.36,1320.62c-50.21-48.6-4.1-145.8,96.66-126v20H819.09v1.51c-28,0-55.83,18-55.4,53.89-.43,35.86,27.43,53.89,55.4,53.89v21.49c-24.84-3.45-43.2-12.52-55.62-24.62A.11.11,0,0,1,763.36,1320.62Z"
/><path
        class="cls-1"
        d="M760.56,6.61v108H540.35C145.18,132.64,227.15,407.5,2,504.37,41.94,96.68,397.57-31,760.56,6.61Z"
/><polygon
        class="cls-1"
        points="683.45 1246.54 683.45 1293.51 673.51 1293.51 641.76 1270.08 673.51 1246.54 683.45 1246.54"
/><polygon
        class="cls-1"
        points="683.45 1194.59 581.6 1270.19 683.45 1345.35 649.75 1345.35 562.38 1280.99 562.38 1280.88 547.8 1270.19 562.38 1259.39 649.86 1194.59 683.45 1194.59"
/><path
        class="cls-1"
        d="M666,826.21v.1C608.39,815.62,551.47,802,504.17,771l.21-.33c-27.32-56.37-81.86-98.17-85.21-165.67a173.81,173.81,0,0,0,121.18,88.24A324.44,324.44,0,0,0,666,826.21Z"
/><polygon
        class="cls-1"
        points="562.38 1280.99 562.38 1345.35 542.29 1345.35 542.29 1270.19 547.8 1270.19 562.38 1280.88 562.38 1280.99"
/><polygon
        class="cls-1"
        points="562.38 1195.45 562.38 1259.39 547.8 1270.19 542.29 1270.19 542.29 1195.45 562.38 1195.45"
/><path class="cls-1" d="M424.57,1214.57l-8.53-20h21.82l64.36,150.76H480.41Z" /><path
        class="cls-1"
        d="M444.77,912.28c.32.11.54.11.86.22a171.78,171.78,0,0,0-14,58.64c-82.51-31.21-144.71-93.42-175.82-175.82A375.48,375.48,0,0,0,444.77,912.28Z"
/><path class="cls-1" d="M419.07,1305.07c2.7,7,15.76,32.62,12.85,40.28H406.21v-10Z" /><path
        class="cls-1"
        d="M416,1194.59l8.53,20H413.45l-55.73,130.78H335.91l64.36-150.76Z"
/><path
        class="cls-1"
        d="M259.12,1282.39l36.72,63H272.62l-35.21-60.58H201.67v-20.09c20.73-1.62,67,9.07,67.82-23.76,1.94-35.21-46.44-25.06-67.82-26.35v-20h41.14C293.14,1191.35,307.5,1267.16,259.12,1282.39Z"
/><path class="cls-1" d="M201.67,1284.77v60.58h-20V1194.59h20v90.18Z" /><polygon
        class="cls-1"
        points="141.51 1194.59 39.56 1270.19 141.51 1345.35 107.71 1345.35 20.44 1280.99 20.44 1280.88 5.86 1270.19 20.44 1259.39 107.81 1194.59 141.51 1194.59"
/><polygon
        class="cls-1"
        points="20.44 1280.99 20.44 1345.35 0.36 1345.35 0.36 1270.19 5.86 1270.19 20.44 1280.88 20.44 1280.99"
/><polygon
        class="cls-1"
        points="20.44 1194.59 20.44 1259.39 5.86 1270.19 0.36 1270.19 0.36 1194.59 20.44 1194.59"
/><path
        class="cls-2"
        d="M540.35,114.6H760.56V6.61C397.57-31,41.94,96.68,2,504.37,227.15,407.5,145.18,132.64,540.35,114.6Z"
/><path
        class="cls-2"
        d="M540.35,136.2H782.16V63.74a536.64,536.64,0,0,1,105,68.9c-1.84,4.43-3.78,8.75-5.72,13.07A378.15,378.15,0,0,1,538.62,364.4c-346-4.86-447,489.56-128.09,621.53.11,2.92.33,5.84.65,8.64A185.36,185.36,0,0,0,438,1076.76C177,1026.33-8.5,793.59.68,527.91,257.61,431.69,151.12,153.27,540.35,136.2"
/><path
        class="cls-2"
        d="M904.19,147.54A540.22,540.22,0,0,1,1080.34,546.6h-108a433.78,433.78,0,0,0-99-275.29,1.9,1.9,0,0,1-.44-.54c-8.42-10.15-17.27-19.87-26.67-29.27A400.56,400.56,0,0,0,904.19,147.54Z"
/><path
        class="cls-2"
        d="M666,826.31C608.39,815.62,551.47,802,504.17,771A221.41,221.41,0,0,1,438.07,704,129.41,129.41,0,0,1,311,628.24c-1.3,122,193.64,154.66,133.81,284"
/><path
        class="cls-2"
        d="M1028.72,1086.59H773.19c72.15-83.7,182.63-88.34,265.35-19.22C1035.52,1074,1032.28,1080.33,1028.72,1086.59Z"
/><path
        class="cls-2"
        d="M934,430.28A406.85,406.85,0,0,0,831.94,257.7c-7.34,8-15,15.66-23,22.9,158.54,158.32,142,426.05-35.21,563.21a286.85,286.85,0,0,0,44.07,5.07C937.24,739.7,976.55,575.43,934,430.28Z"
/><path
        class="cls-2"
        d="M1057.66,978.59A216.19,216.19,0,0,0,970,804.82c.32,64.26-81.44,62.86-128.31,65.77-8.31.33-16.63.22-24.94-.11A325.71,325.71,0,0,1,540.35,693.26,173.81,173.81,0,0,1,419.17,605c3.35,67.5,57.89,109.3,85.21,165.67"
/><path
        class="cls-2"
        d="M432.13,971.36c-.21-.11-.32-.11-.54-.22-82.51-31.21-144.71-93.42-175.82-175.82a375.48,375.48,0,0,0,189,117c.32.11.54.11.86.22a171.78,171.78,0,0,0-14,58.64,186.1,186.1,0,0,0,.33,21.92c2.7,31.43,14.79,61.89,35.75,88.56,159.18,25.7,256.17-17.49,353.26-72.68,68.14-12.53,173.66,15,236.73-30.35"
/><path
        class="cls-2"
        d="M769.63,897.27c-26.46,8.31-139.32,48.27-95.69-14.37A325.94,325.94,0,0,0,769.63,897.27Z"
/><line class="cls-2" x1="562.38" y1="1259.39" x2="562.38" y2="1195.45" /><line
        class="cls-2"
        x1="954.63"
        y1="1248.05"
        x2="954.63"
        y2="1345.35"
/><polyline
        class="cls-2"
        points="562.38 1195.45 542.29 1195.45 542.29 1270.19 542.29 1345.35 562.38 1345.35 562.38 1280.99"
/><polygon
        class="cls-2"
        points="683.45 1194.59 649.86 1194.59 562.38 1259.39 547.8 1270.19 562.38 1280.88 562.38 1280.99 649.75 1345.35 683.45 1345.35 581.6 1270.19 683.45 1194.59"
/><path class="cls-2" d="M1021.05,1194.59v97.2l27.54,40.39V1218l31.75-23.43Z" /><polyline
        class="cls-2"
        points="954.63 1345.35 934.65 1345.35 934.65 1218.67 934.65 1194.59 942.43 1194.59 1045.35 1345.35 1021.05 1345.35 954.63 1248.05 934.65 1218.67"
/><line class="cls-2" x1="20.44" y1="1259.39" x2="20.44" y2="1194.59" /><polyline
        class="cls-2"
        points="20.44 1194.59 0.36 1194.59 0.36 1270.19 0.36 1345.35 20.44 1345.35 20.44 1280.99"
/><polygon
        class="cls-2"
        points="141.51 1194.59 107.81 1194.59 20.44 1259.39 5.86 1270.19 20.44 1280.88 20.44 1280.99 107.71 1345.35 141.51 1345.35 39.56 1270.19 141.51 1194.59"
/><path
        class="cls-2"
        d="M416,1194.59l8.53,20,55.84,130.78h21.81l-64.36-150.76H400.27l-64.36,150.76h21.81l55.73-130.78h11.23"
/><path
        class="cls-2"
        d="M201.67,1264.68c20.73-1.62,67,9.07,67.82-23.76,1.94-35.21-46.44-25.06-67.82-26.35v130.78h-20V1194.59h61.12c50.33-3.24,64.69,72.57,16.31,87.8l36.72,63H272.62l-35.21-60.58H201.67"
/><line class="cls-2" x1="201.67" y1="1214.57" x2="201.67" y2="1194.59" /><path
        class="cls-2"
        d="M763.47,1320.73a75.09,75.09,0,0,0,55.62,24.62"
/><path class="cls-2" d="M745,1283.9a75,75,0,0,0,18.36,36.72" /><path
        class="cls-2"
        d="M819.09,1323.86c-28,0-55.83-18-55.4-53.89-.43-35.85,27.43-53.89,55.4-53.89s55.84,18,55.3,53.89C874.93,1305.83,847.06,1323.86,819.09,1323.86Z"
/><path
        class="cls-2"
        d="M773.73,1270c-.86-58.86,91.59-58.86,90.72,0C865.32,1328.72,772.87,1328.72,773.73,1270Z"
/><path class="cls-2" d="M860,1206.58A75.54,75.54,0,0,1,894.47,1270H874.39" /><path
        class="cls-2"
        d="M819.09,1325.27v20.08c-24.84-3.45-43.2-12.52-55.62-24.62a.11.11,0,0,1-.11-.11c-50.21-48.6-4.1-145.8,96.66-126v20H819.09"
/><path
        class="cls-2"
        d="M406.21,1335.31l12.86-30.24c2.7,7,15.76,32.62,12.85,40.28H406.21Z"
/><polygon
        class="cls-2"
        points="683.45 1293.51 683.45 1246.54 673.51 1246.54 641.76 1270.08 673.51 1293.51 683.45 1293.51"
/></svg>
